<?xml version="1.0" encoding="UTF-8" standalone="no"?>
<!-- Created with Inkscape (http://www.inkscape.org/) -->

<svg
   xmlns:dc="http://purl.org/dc/elements/1.1/"
   xmlns:cc="http://creativecommons.org/ns#"
   xmlns:rdf="http://www.w3.org/1999/02/22-rdf-syntax-ns#"
   xmlns:svg="http://www.w3.org/2000/svg"
   xmlns="http://www.w3.org/2000/svg"
   xmlns:sodipodi="http://sodipodi.sourceforge.net/DTD/sodipodi-0.dtd"
   xmlns:inkscape="http://www.inkscape.org/namespaces/inkscape"
   width="52.916668mm"
   height="52.916668mm"
   viewBox="0 0 52.916668 52.916668"
   version="1.1"
   id="svg8"
   inkscape:version="0.92.4 (5da689c313, 2019-01-14)"
   sodipodi:docname="kq-avatar.svg">
  <defs
     id="defs2" />
  <sodipodi:namedview
     id="base"
     pagecolor="#ffffff"
     bordercolor="#666666"
     borderopacity="1.0"
     inkscape:pageopacity="0.0"
     inkscape:pageshadow="2"
     inkscape:zoom="2.8"
     inkscape:cx="113.47241"
     inkscape:cy="130.37591"
     inkscape:document-units="mm"
     inkscape:current-layer="layer1"
     showgrid="false"
     fit-margin-top="0"
     fit-margin-left="0"
     fit-margin-right="0"
     fit-margin-bottom="0"
     inkscape:window-width="1920"
     inkscape:window-height="1011"
     inkscape:window-x="0"
     inkscape:window-y="32"
     inkscape:window-maximized="1" />
  <metadata
     id="metadata5">
    <rdf:RDF>
      <cc:Work
         rdf:about="">
        <dc:format>image/svg+xml</dc:format>
        <dc:type
           rdf:resource="http://purl.org/dc/dcmitype/StillImage" />
        <dc:title />
      </cc:Work>
    </rdf:RDF>
  </metadata>
  <g
     inkscape:label="Layer 1"
     inkscape:groupmode="layer"
     id="layer1"
     transform="translate(-42.635751,-130.3881)">
    <circle
       r="26.067324"
       cy="156.84644"
       cx="69.094086"
       id="circle1012-2"
       style="display:inline;opacity:1;fill:#333333;fill-opacity:1;stroke:#ffffff;stroke-width:0.782;stroke-miterlimit:4;stroke-dasharray:none;stroke-dashoffset:0;stroke-opacity:1" />
    <path
       style="display:inline;fill:none;fill-rule:evenodd;stroke:#ffffff;stroke-width:2.36014104;stroke-linecap:butt;stroke-linejoin:miter;stroke-miterlimit:4;stroke-dasharray:none;stroke-opacity:1"
       d="m 70.861902,138.97661 c -0.952632,-0.11823 -2.257872,-0.002 -3.233025,0.12997 -0.975153,0.13118 -1.76577,0.28441 -2.599417,0.60112 -0.833647,0.31669 -1.749797,0.84512 -2.355747,1.28343 -0.605969,0.43833 -0.928398,0.73602 -1.315927,1.23476 -0.387547,0.49874 -0.951653,1.39709 -0.958577,1.73836 -0.007,0.34128 0.03466,0.0452 0.02811,0.0563 -0.0066,0.0111 -0.483446,0.82328 -0.726684,1.32468 -0.246644,0.50841 -0.511782,1.20493 -0.731087,1.72212 -0.219287,0.5172 -0.405479,1.05985 -0.469995,1.36945 -0.08369,0.40155 -0.162616,0.81049 -0.173961,1.3437 -0.01129,0.53319 -0.03219,1.16759 0.04282,1.85207 0.07502,0.68449 0.295807,1.4152 0.316258,2.25153 0.0024,0.0968 0,0.20793 -0.004,0.32817 -0.01167,-0.0126 -0.02369,-0.0237 -0.03661,-0.0318 -0.121224,-0.0754 -0.204894,-0.0357 -0.310163,0.0115 -0.105268,0.0473 -0.205702,0.14382 -0.264235,0.27569 -0.05851,0.13186 -0.0482,0.26465 -0.02297,0.40208 0.02525,0.13744 0.05067,0.29436 0.08041,0.43656 0.02975,0.1422 0.03148,0.30149 0.04593,0.48248 0.01449,0.181 0.103425,0.56294 0.103425,0.56294 l 0.137856,0.60883 c 0,0 0.0045,0.0212 0.0055,0.027 0,0.3261 0.0081,0.85122 0.04593,1.51727 0.06455,1.13814 0.303671,3.75267 0.389918,4.95516 0.08623,1.20249 0.03823,1.66993 0.146229,2.25825 0.108016,0.5883 0.389918,1.26723 0.389918,1.26723 0,0 0.654192,1.60835 1.185992,2.43696 0.531782,0.82862 2.030777,2.46948 2.030777,2.46948 0,0 1.269492,1.42533 2.014578,1.88458 0.745104,0.45925 1.692656,0.7163 2.33949,0.86108 0.646854,0.14476 1.397207,0.12994 1.478431,0.12994 0.08124,0 1.015548,-0.12002 1.592147,-0.35739 0.576618,-0.23739 1.787088,-1.12104 1.787088,-1.12104 0,0 1.703926,-1.23313 2.4857,-1.98207 0.781775,-0.7489 2.135538,-2.44229 2.177025,-2.50194 0.129973,-0.18685 0.545874,-1.22008 0.763599,-1.86833 0.217744,-0.64826 0.390614,-1.35581 0.536109,-2.01459 0.145514,-0.65877 0.341188,-1.93332 0.341188,-1.93332 l 0.13748,-0.83415 c 0.02406,-0.0242 0.04869,-0.0471 0.07375,-0.0675 0.217048,-0.17667 0.321941,-0.43566 0.406156,-0.67423 0.08423,-0.23857 0.117573,-0.55212 0.129991,-0.77982 0.01242,-0.22769 -0.0565,-0.38611 -0.03251,-0.57675 0.02397,-0.19065 0.162447,-0.54423 0.162447,-0.54423 l 0.308695,-1.15352 c 0,0 0.147753,-0.61118 0.259927,-0.9748 0.112174,-0.36361 0.328318,-0.83295 0.42243,-1.20223 0.09411,-0.36929 0.162466,-0.69991 0.162466,-0.99914 0,-0.29925 0.03833,-0.59419 -0.113736,-0.7636 -0.152042,-0.16941 -0.306192,-0.22472 -0.503635,-0.21932 -0.197442,0.005 -0.356145,0.0566 -0.568621,0.22745 -0.02805,0.0226 -0.05955,0.0528 -0.09293,0.0877 0.12128,-0.33411 0.250444,-0.70815 0.304122,-0.96501 0.08762,-0.41927 0.734135,-4.00245 0.704163,-4.56496 -0.02997,-0.56251 -0.122277,-1.13228 -0.217894,-1.42475 -0.09564,-0.29248 -0.222128,-0.92541 -0.448206,-1.42624 -0.08606,-0.19067 -0.14542,-0.34471 -0.210877,-0.4915 l 0.351536,0.25534 c 0,0 -0.563127,-1.02712 -1.00727,-1.70587 -0.444161,-0.67874 -1.12665,-1.68172 -1.689664,-2.33949 -0.563015,-0.65778 -1.050676,-1.271 -1.640878,-1.62462 -0.590221,-0.35363 -1.174609,-0.54238 -1.867596,-0.75156 -0.692987,-0.20918 -1.338862,-0.38119 -2.291513,-0.49942 z"
       id="path1014-2"
       inkscape:connector-curvature="0"
       sodipodi:nodetypes="zzzzzzzsssssscsssssscccssscscsscscscssccssssccsssssscsssscczzzzz" />
    <path
       sodipodi:nodetypes="ssssssssssssscsssssscccssscscsscscscssccssssccsssssscssssccsssss"
       inkscape:connector-curvature="0"
       id="path1016-3"
       d="m 70.861902,138.97661 c -1.074947,-0.088 -2.164099,-0.0137 -3.233025,0.12997 -0.881399,0.11857 -1.768047,0.28527 -2.599417,0.60112 -0.835942,0.31755 -1.631207,0.75934 -2.355747,1.28343 -0.487379,0.35255 -0.946874,0.7598 -1.315927,1.23476 -0.406005,0.52252 -0.945162,1.07679 -0.958577,1.73836 0,0.021 0.283295,-0.37792 0.02811,0.0563 -0.01298,0.0222 -0.483446,0.82328 -0.726684,1.32468 -0.246644,0.50841 -0.511782,1.20493 -0.731087,1.72212 -0.219287,0.5172 -0.405479,1.05985 -0.469995,1.36945 -0.08369,0.40155 -0.162616,0.81049 -0.173961,1.3437 -0.01129,0.53319 -0.03219,1.16759 0.04282,1.85207 0.07502,0.68449 0.295807,1.4152 0.316258,2.25153 0.0024,0.0968 0,0.20793 -0.004,0.32817 -0.01167,-0.0126 -0.02369,-0.0237 -0.03661,-0.0318 -0.121224,-0.0754 -0.204894,-0.0357 -0.310163,0.0115 -0.105268,0.0473 -0.205702,0.14382 -0.264235,0.27569 -0.05851,0.13186 -0.0482,0.26465 -0.02297,0.40208 0.02525,0.13744 0.05067,0.29436 0.08041,0.43656 0.02975,0.1422 0.03148,0.30149 0.04593,0.48248 0.01449,0.181 0.103425,0.56294 0.103425,0.56294 l 0.137856,0.60883 c 0,0 0.0045,0.0212 0.0055,0.027 0,0.3261 0.0081,0.85122 0.04593,1.51727 0.06455,1.13814 0.303671,3.75267 0.389918,4.95516 0.08623,1.20249 0.03823,1.66993 0.146229,2.25825 0.108016,0.5883 0.389918,1.26723 0.389918,1.26723 0,0 0.654192,1.60835 1.185992,2.43696 0.531782,0.82862 2.030777,2.46948 2.030777,2.46948 0,0 1.269492,1.42533 2.014578,1.88458 0.745104,0.45925 1.692656,0.7163 2.33949,0.86108 0.646854,0.14476 1.397207,0.12994 1.478431,0.12994 0.08124,0 1.015548,-0.12002 1.592147,-0.35739 0.576618,-0.23739 1.787088,-1.12104 1.787088,-1.12104 0,0 1.703926,-1.23313 2.4857,-1.98207 0.781775,-0.7489 1.099199,-1.15724 2.177025,-2.50194 0.577539,-1.24779 0.549468,-1.22729 0.763599,-1.86833 0.216672,-0.64862 0.390614,-1.35581 0.536109,-2.01459 0.145514,-0.65877 0.341188,-1.93332 0.341188,-1.93332 l 0.13748,-0.83415 c 0.02406,-0.0242 0.04869,-0.0471 0.07375,-0.0675 0.217048,-0.17667 0.321941,-0.43566 0.406156,-0.67423 0.08423,-0.23857 0.117573,-0.55212 0.129991,-0.77982 0.01242,-0.22769 -0.0565,-0.38611 -0.03251,-0.57675 0.02397,-0.19065 0.162447,-0.54423 0.162447,-0.54423 l 0.308695,-1.15352 c 0,0 0.147753,-0.61118 0.259927,-0.9748 0.112174,-0.36361 0.328318,-0.83295 0.42243,-1.20223 0.09411,-0.36929 0.162466,-0.69991 0.162466,-0.99914 0,-0.29925 0.03833,-0.59419 -0.113736,-0.7636 -0.152042,-0.16941 -0.306192,-0.22472 -0.503635,-0.21932 -0.197442,0.005 -0.356145,0.0566 -0.568621,0.22745 -0.02805,0.0226 -0.05955,0.0528 -0.09293,0.0877 0.12128,-0.33411 0.250444,-0.70815 0.304122,-0.96501 0.08762,-0.41927 0.734135,-4.00245 0.704163,-4.56496 -0.02997,-0.56251 -0.122277,-1.13228 -0.217894,-1.42475 -0.09564,-0.29248 -0.222128,-0.92541 -0.448206,-1.42624 -0.08606,-0.19067 -0.14542,-0.34471 -0.210877,-0.4915 l 0.351536,0.25534 c 0,0 -0.645687,-1.1533 -1.00727,-1.70587 -0.526721,-0.80493 -1.064147,-1.60868 -1.689664,-2.33949 -0.500512,-0.58474 -1.003131,-1.19369 -1.640878,-1.62462 -0.523071,-0.35346 -1.136358,-0.56153 -1.738357,-0.75156 -0.785688,-0.24802 -1.599579,-0.43223 -2.420752,-0.49942 z"
       style="display:inline;fill:#333333;fill-opacity:1;fill-rule:evenodd;stroke:#333333;stroke-width:1.01148903;stroke-linecap:butt;stroke-linejoin:miter;stroke-miterlimit:4;stroke-dasharray:none;stroke-opacity:1" />
    <path
       sodipodi:nodetypes="zzzzsszzzzzzzzczzzzczczz"
       inkscape:connector-curvature="0"
       id="path1018-7"
       d="m 58.641002,156.66897 c 0.07199,-1.23777 0.324989,-6.65051 0.717767,-8.37365 0.392796,-1.72315 0.292231,-1.66319 0.619684,-2.35525 0.327435,-0.69209 0.498913,-1.30688 1.265579,-1.74837 0.766685,-0.44149 3.722473,-0.40798 7.32615,-0.32226 3.552463,0.0845 6.982667,0.66046 7.555597,0.97212 1.154101,0.62782 1.560651,2.41853 1.932507,3.70778 0.371838,1.28925 0.302618,1.82131 0.341997,3.89555 0.03936,2.07424 -0.01524,2.11558 -0.0083,3.07971 0.007,0.96412 0.03693,1.84067 0.03447,2.69966 -0.0024,0.85901 -0.01825,1.35623 -0.137857,2.43544 -0.119624,1.07924 -0.364198,2.82445 -0.666307,4.02081 -0.30211,1.19634 -0.588189,2.16308 -1.079877,3.1477 -0.491669,0.98461 -0.997354,1.79611 -1.838057,2.71115 -0.840721,0.91504 -3.251106,2.64224 -3.251106,2.64224 0,0 -1.038841,0.82754 -1.838075,1.02242 -0.799216,0.19488 -2.032019,0.13848 -2.929429,-0.046 -0.897411,-0.18442 -1.605619,-0.48196 -2.527357,-1.11432 -0.921738,-0.63237 -2.085396,-1.95215 -2.734131,-2.75713 -0.648735,-0.80497 -1.332597,-2.11378 -1.332597,-2.11378 0,0 -0.72025,-1.17902 -0.94202,-2.11379 -0.22177,-0.93478 -0.160829,-3.44639 -0.160829,-3.44639 0,0 -0.220642,-2.25977 -0.287208,-3.25108 -0.06657,-0.99134 -0.13257,-1.45486 -0.06058,-2.69261 z"
       style="display:inline;fill:#ffffff;fill-rule:evenodd;stroke:#ffffff;stroke-width:0.06743259;stroke-linecap:butt;stroke-linejoin:miter;stroke-miterlimit:4;stroke-dasharray:none;stroke-opacity:1" />
    <path
       sodipodi:nodetypes="czzzzzzcczzzzcc"
       inkscape:connector-curvature="0"
       id="path1020-5"
       d="m 78.351534,155.19054 c 0,0 0.404895,-0.59272 0.617371,-0.76358 0.212457,-0.17086 0.371178,-0.22205 0.568621,-0.22745 0.197443,-0.005 0.351592,0.0499 0.503635,0.21932 0.152061,0.16941 0.113736,0.46433 0.113736,0.76358 0,0.29925 -0.06836,0.62986 -0.162466,0.99916 -0.09411,0.3693 -0.310238,0.83862 -0.422412,1.20223 -0.112174,0.36362 -0.259945,0.9748 -0.259945,0.9748 l -0.308676,1.15349 c 0,0 -0.138496,0.35361 -0.162466,0.54426 -0.02397,0.19063 0.04489,0.34903 0.03249,0.57675 -0.01242,0.2277 -0.04574,0.54125 -0.129973,0.77982 -0.08423,0.23859 -0.189107,0.49757 -0.406155,0.67423 -0.217048,0.17667 -0.406174,0.52802 -0.406174,0.52802 z"
       style="display:inline;fill:#ffffff;fill-rule:evenodd;stroke:#ffffff;stroke-width:0.06743259;stroke-linecap:butt;stroke-linejoin:miter;stroke-miterlimit:4;stroke-dasharray:none;stroke-opacity:1" />
    <path
       sodipodi:nodetypes="czzzzzzcczcc"
       inkscape:connector-curvature="0"
       id="path1029-9"
       d="m 58.850938,154.61704 c -0.02297,-0.0574 -0.08555,-0.36109 -0.206794,-0.43654 -0.121224,-0.0755 -0.204912,-0.0358 -0.310162,0.0115 -0.105269,0.0472 -0.205702,0.14386 -0.264235,0.27571 -0.05851,0.13188 -0.04822,0.26465 -0.02297,0.40209 0.02525,0.13743 0.05067,0.29432 0.08041,0.43655 0.02975,0.1422 0.0315,0.30148 0.04597,0.48248 0.01449,0.181 0.103387,0.56292 0.103387,0.56292 l 0.137857,0.60885 c 0,0 0.10826,0.57156 0.231967,0.72456 0.123708,0.153 0.376899,0.12555 0.376899,0.12555 z"
       style="display:inline;fill:#ffffff;fill-rule:evenodd;stroke:#ffffff;stroke-width:0.06743259;stroke-linecap:butt;stroke-linejoin:miter;stroke-miterlimit:4;stroke-dasharray:none;stroke-opacity:1" />
    <path
       sodipodi:nodetypes="czzzzzzcsszzzzzzc"
       inkscape:connector-curvature="0"
       id="path1031-2"
       d="m 78.811199,155.41972 c 0,0 0.01656,-0.29142 0.08935,-0.40617 0.07287,-0.11473 0.175806,-0.20629 0.316804,-0.24369 0.141017,-0.0374 0.35577,-0.0235 0.471142,0.065 0.115391,0.0885 0.125645,0.19602 0.154357,0.36556 0.02871,0.16954 -0.01637,0.44248 -0.04062,0.63361 -0.02423,0.1911 -0.0724,0.33981 -0.12621,0.51176 -0.05379,0.17195 -0.485912,1.3274 -0.485912,1.3274 0,0 0.09908,-0.49253 0.132588,-0.60915 0.04627,-0.16107 0.223539,-0.6947 0.236653,-0.75353 0.04785,-0.21481 0.09358,-0.45346 0.113717,-0.63558 0.02015,-0.18213 0.03528,-0.3703 0.0047,-0.4989 -0.03052,-0.1286 -0.03844,-0.16098 -0.123237,-0.22211 -0.0848,-0.0611 -0.190933,-0.0351 -0.270859,-0.0339 -0.07993,0.002 -0.09501,0.005 -0.154337,0.0137 -0.05932,0.009 -0.13669,0.0836 -0.178666,0.13617 -0.042,0.0526 -0.139531,0.34971 -0.139531,0.34971 z"
       style="display:inline;fill:#333333;fill-opacity:1;fill-rule:evenodd;stroke:#333333;stroke-width:0.03371629px;stroke-linecap:butt;stroke-linejoin:miter;stroke-opacity:1" />
    <path
       sodipodi:nodetypes="zzsccczcczzzzz"
       inkscape:connector-curvature="0"
       id="path1033-2"
       d="m 79.180101,153.54964 c -0.08762,0.41927 -0.376447,1.15166 -0.503635,1.51093 -0.127188,0.35926 -0.24369,0.64986 -0.24369,0.64986 0.0049,0.20924 0.06499,0.99103 0.06499,0.99103 l -0.243708,0.61735 -0.04873,-4.9389 c 0,0 0.131572,-2.39551 -0.162466,-3.41177 -0.294038,-1.01624 -1.445937,-2.55069 -1.445937,-2.55069 l -0.09748,-3.37925 c 0,0 1.545562,1.29295 1.998322,1.8196 0.452741,0.52665 0.49434,0.7751 0.7204,1.27593 0.226079,0.50083 0.352552,1.13374 0.448188,1.42622 0.09562,0.29247 0.18796,0.86228 0.217932,1.42479 0.02997,0.5625 -0.616561,4.14565 -0.704182,4.5649 z"
       style="display:inline;fill:#7a7a7a;fill-opacity:1;fill-rule:evenodd;stroke:#7a7a7a;stroke-width:0.06743259;stroke-linecap:butt;stroke-linejoin:miter;stroke-miterlimit:4;stroke-dasharray:none;stroke-opacity:1" />
    <path
       sodipodi:nodetypes="czzzczczczcszczczcczcczczcccczzzzzzzzzzc"
       inkscape:connector-curvature="0"
       id="path1035-8"
       d="m 60.837876,144.84156 c 0,0 4.621408,0.008 6.173649,0.60112 1.552241,0.59255 1.721424,1.28475 3.118499,1.8926 1.397057,0.60787 4.182967,0.86986 5.199681,1.34044 1.016697,0.47056 1.10475,0.77982 1.10475,0.77982 0,0 -0.23067,-0.64157 -0.389918,-0.8773 -0.159249,-0.23573 -0.519872,-0.53613 -0.519872,-0.53613 0,0 0.637276,0.23942 0.845631,0.41288 0.208337,0.17347 0.616882,0.45097 0.616882,0.45097 0,0 -0.35957,-0.73869 -0.576844,-1.04454 -0.217292,-0.30586 -0.706966,-0.74537 -0.706966,-0.74537 0,0 0.462336,0.1657 0.644765,0.32051 0.219832,0.18657 0.341112,0.27037 0.521038,0.49297 0.179926,0.22261 0.507586,0.77868 0.507586,0.77868 0,0 -0.393869,-1.20994 -0.633137,-1.60364 -0.239268,-0.3937 -0.682827,-0.7846 -0.682827,-0.7846 0,0 0.774625,0.46304 1.109171,0.75687 0.334565,0.29381 0.884371,0.99171 0.884371,0.99171 l -1.229962,-2.12224 c 0,0 0.84947,0.70973 1.198767,1.14756 0.349297,0.43783 0.793628,1.20375 0.793628,1.20375 -0.394904,-1.48579 -1.244148,-2.20538 -2.34982,-3.17987 0,0 1.318693,0.9943 1.712901,1.26495 0.394208,0.27064 0.939555,0.93327 0.939555,0.93327 0,0 -0.385195,-0.74869 -0.802828,-1.2175 -0.417632,-0.46881 -1.768385,-1.48436 -1.768385,-1.48436 l 2.128275,1.10475 -2.58318,-2.19326 3.265537,2.37196 c 0,0 -0.563146,-1.02712 -1.007289,-1.70586 -0.444142,-0.67875 -1.126612,-1.68171 -1.689627,-2.33949 -0.563014,-0.65777 -1.050675,-1.27102 -1.640896,-1.62464 -0.590221,-0.35363 -1.04537,-0.32697 -1.738357,-0.53613 -0.692988,-0.20918 -1.468083,-0.59662 -2.420714,-0.71485 -0.952651,-0.11823 -2.257891,-0.002 -3.233044,0.12997 -0.975172,0.13118 -1.765789,0.28441 -2.599436,0.60112 -0.833647,0.31671 -1.749778,0.84516 -2.355728,1.28347 -0.605969,0.43831 -0.928436,0.73598 -1.315965,1.23472 -0.387547,0.49874 -0.948586,1.24415 -0.958539,1.73838 -0.01,0.49422 0.438648,0.87731 0.438648,0.87731 z"
       style="display:inline;fill:#333333;fill-opacity:1;fill-rule:evenodd;stroke:#333333;stroke-width:0.06743259;stroke-linecap:butt;stroke-linejoin:miter;stroke-miterlimit:4;stroke-dasharray:none;stroke-opacity:1" />
    <path
       sodipodi:nodetypes="czcccczzzszzcc"
       inkscape:connector-curvature="0"
       id="path1037-9"
       d="m 60.837876,144.84156 c 0,0 -0.511537,0.9455 -0.698594,1.47841 -0.187075,0.53292 -0.406155,1.70589 -0.406155,1.70589 l -0.536147,3.23304 -0.584859,5.54002 -0.178721,-0.19494 c 0,0 0.271685,-1.88355 0.251253,-2.71989 -0.02045,-0.83633 -0.241225,-1.56704 -0.31624,-2.25153 -0.07501,-0.68448 -0.05417,-1.31888 -0.04282,-1.85209 0.01129,-0.53319 0.09027,-0.94215 0.173961,-1.3437 0.06452,-0.30959 0.250689,-0.85227 0.469995,-1.36945 0.219286,-0.51718 0.484425,-1.21371 0.731087,-1.72212 0.246643,-0.50842 0.731087,-1.3322 0.731087,-1.3322 z"
       style="display:inline;fill:#7a7a7a;fill-opacity:1;fill-rule:evenodd;stroke:#7a7a7a;stroke-width:0.06743259;stroke-linecap:butt;stroke-linejoin:miter;stroke-miterlimit:4;stroke-dasharray:none;stroke-opacity:1" />
    <path
       sodipodi:nodetypes="cssscscsscscssssccsccsssssszcsssssssssscccsssssssssssssssssscssss"
       inkscape:connector-curvature="0"
       id="path1039-7"
       d="m 58.423258,156.62225 c 0,0 -0.0219,0.74439 0.04264,1.88254 0.06455,1.13816 0.303671,3.75269 0.389918,4.95518 0.08623,1.20249 0.03823,1.66993 0.146248,2.25823 0.107997,0.58832 0.389899,1.26723 0.389899,1.26723 0,0 0.654191,1.60835 1.185973,2.43697 0.531801,0.82861 2.030796,2.46949 2.030796,2.46949 0,0 1.269492,1.42533 2.014577,1.88458 0.745105,0.45925 1.692656,0.7163 2.339491,0.86108 0.646853,0.14476 1.397207,0.12994 1.47843,0.12994 0.08124,0 1.015549,-0.12002 1.592148,-0.35739 0.576617,-0.23739 1.787087,-1.12104 1.787087,-1.12104 0,0 1.703926,-1.23315 2.485701,-1.98207 0.781774,-0.74892 2.135538,-2.4423 2.177024,-2.50194 0.129973,-0.18685 0.545875,-1.22008 0.7636,-1.86835 0.217743,-0.64824 0.390614,-1.35579 0.536109,-2.01457 0.145514,-0.65877 0.341188,-1.93332 0.341188,-1.93332 l 0.243708,-1.47843 c 0,0 0.231874,-1.47553 0.259927,-2.27451 0.02803,-0.79897 -0.123745,-2.48208 -0.123745,-2.48208 l -0.251799,0.53074 c 0,0 0.0092,1.75482 -0.0631,2.5525 -0.07231,0.79767 -0.214696,1.3918 -0.353474,2.16077 -0.138797,0.76896 -0.217687,1.8363 -0.475074,2.45322 -0.257386,0.61692 -0.56166,0.85425 -0.893591,1.23472 -0.331931,0.38046 -0.747776,0.83867 -1.088474,1.03979 -0.34068,0.20109 -0.538763,0.32141 -0.828586,0.2599 -0.289842,-0.0615 -0.331028,-0.31481 -0.682357,-0.60109 -0.351329,-0.28629 -1.4459,-1.08851 -1.4459,-1.08851 0,0 -0.70992,-0.47154 -1.241439,-0.68089 -0.531499,-0.20934 -1.403604,-0.348 -1.844247,-0.25748 -0.440661,0.0905 -1.323509,0.6695 -1.804491,0.69466 -0.481001,0.0251 -0.695998,-0.19778 -0.983187,-0.32576 -0.287189,-0.12798 -0.552666,-0.34064 -0.968718,-0.42159 -0.416052,-0.0809 -1.011466,0.0567 -1.606089,0.24371 -0.594643,0.18704 -1.206764,0.58539 -1.677002,0.86778 -0.470258,0.28239 -0.747061,0.68796 -1.166124,0.75684 -0.419081,0.0689 -0.868247,-0.15623 -1.185992,-0.3899 -0.317744,-0.23368 -0.50911,-0.5981 -0.649882,-0.9098 -0.140754,-0.31169 -0.211178,-0.9098 -0.211178,-0.9098 0.03456,-0.32607 -0.463032,-7.12812 -0.463032,-7.12812 z m 5.05445,9.98931 c 0.160001,0.003 0.339024,0.03 0.544463,0.0327 0.410878,0.005 1.413444,0.16247 1.478431,0.16247 0.06499,0 0.978351,0.28271 1.397207,0.35743 0.418855,0.0747 1.023507,0.12997 1.10473,0.11373 0.08124,-0.0162 0.923093,-0.1359 1.413444,-0.22745 0.490352,-0.0916 1.058014,-0.3 1.527199,-0.32491 0.469185,-0.0249 0.986423,0.0198 1.250978,0.12993 0.264555,0.11018 0.239663,-0.002 0.357388,0.29244 0.117724,0.29445 -0.04824,0.99434 -0.178722,1.4297 -0.130462,0.43534 -0.34926,0.78678 -0.568622,1.1535 -0.219362,0.36674 -0.3013,0.77003 -0.601095,1.056 -0.299796,0.28598 -0.914513,0.48606 -1.267235,0.48742 -0.35274,0.002 -0.550672,-0.0132 -0.812292,-0.35743 -0.26162,-0.34431 -0.03247,-1.3405 -0.243708,-1.68963 -0.211234,-0.34911 -2.307693,-0.48866 -2.696934,-0.0812 -0.389241,0.40742 -0.203727,1.39403 -0.471105,1.6084 -0.371536,0.2979 -0.619252,0.21989 -0.89359,0.11374 -0.274339,-0.10617 -0.991014,-0.74734 -0.991014,-0.74734 -0.22971,-0.29017 -0.289654,-0.64665 -0.568622,-1.12101 -0.278967,-0.47434 -0.275768,-0.88196 -0.308694,-1.29971 -0.03294,-0.41774 -0.161262,-0.78471 0.09746,-0.97477 0.129352,-0.095 0.270332,-0.11673 0.430333,-0.11397 z"
       style="display:inline;fill:#7a7a7a;fill-opacity:1;fill-rule:evenodd;stroke:#7a7a7a;stroke-width:0.06743259;stroke-linecap:butt;stroke-linejoin:miter;stroke-miterlimit:4;stroke-dasharray:none;stroke-opacity:1" />
    <path
       sodipodi:nodetypes="czzzzsssczzzzzzc"
       inkscape:connector-curvature="0"
       id="path1041-3"
       d="m 65.582879,160.80906 c 0,0 -0.462788,0.0502 -0.643316,0.1838 -0.180529,0.1336 -0.415036,0.30553 -0.551425,0.53995 -0.136389,0.23439 -0.244818,0.54811 -0.287208,0.78117 -0.04237,0.23306 -0.04045,0.31981 -0.02516,0.49895 0.01524,0.17912 0.05725,0.433 0.174508,0.6039 0.0667,0.0972 0.114375,0.18485 0.2305,0.26523 0.08802,0.0609 0.296484,0.14967 0.428658,0.17131 0.401941,0.0658 1.041061,-0.046 1.041061,-0.046 0,0 -0.662225,-0.0207 -0.893515,-0.0779 -0.23131,-0.0571 -0.31464,-0.0489 -0.47355,-0.20934 -0.158929,-0.16039 -0.215279,-0.36724 -0.25274,-0.62034 -0.03746,-0.25311 0.01355,-0.62029 0.08042,-0.8616 0.06687,-0.24132 0.146925,-0.4043 0.275712,-0.5744 0.128788,-0.17011 0.230087,-0.30781 0.391574,-0.42704 0.161506,-0.11923 0.504482,-0.22777 0.504482,-0.22777 z"
       style="display:inline;fill:#333333;fill-opacity:1;fill-rule:evenodd;stroke:#333333;stroke-width:0.03371629px;stroke-linecap:butt;stroke-linejoin:miter;stroke-opacity:1" />
    <path
       sodipodi:nodetypes="czzzzzzzczzzszzc"
       inkscape:connector-curvature="0"
       id="path1043-6"
       d="m 69.692185,161.05549 c 0,0 0.330595,0.0267 0.519891,0.0813 0.189277,0.0546 0.42926,0.15232 0.583278,0.26824 0.154018,0.11592 0.294113,0.27725 0.391499,0.54407 0.0974,0.26683 0.121825,0.65488 0.113735,0.95854 -0.0081,0.30367 -0.143049,0.53712 -0.341188,0.77983 -0.19812,0.24271 -0.259494,0.2613 -0.389899,0.32493 -0.130424,0.0636 -0.384537,0.11146 -0.617371,0.12998 -0.232833,0.0184 -0.666101,-0.16247 -0.666101,-0.16247 0,0 0.406137,0.0334 0.601115,0 0.194978,-0.0334 0.368093,-0.0851 0.552384,-0.19496 0.184272,-0.1099 0.362185,-0.27133 0.453926,-0.47114 0.09174,-0.19981 0.141111,-0.42745 0.133491,-0.654 -0.01148,-0.34332 -0.06295,-0.62721 -0.213755,-0.84067 -0.1508,-0.21347 -0.266756,-0.35552 -0.396277,-0.44122 -0.129521,-0.0857 -0.724728,-0.32238 -0.724728,-0.32238 z"
       style="display:inline;fill:#333333;fill-opacity:1;fill-rule:evenodd;stroke:#333333;stroke-width:0.03371629px;stroke-linecap:butt;stroke-linejoin:miter;stroke-opacity:1" />
    <path
       sodipodi:nodetypes="czzzzzzzzzczzzzzzzzc"
       inkscape:connector-curvature="0"
       id="path1045-1"
       d="m 65.240656,163.33 c 0,0 0.382938,-0.0413 0.552384,0 0.169446,0.0413 0.28766,0.11272 0.438649,0.22745 0.151008,0.11473 0.28892,0.35054 0.438667,0.47114 0.149729,0.1206 0.27242,0.20619 0.438649,0.25995 0.166229,0.0538 0.332345,0.0861 0.536128,0.0487 0.203802,-0.0374 0.466852,-0.21086 0.633608,-0.3087 0.166755,-0.0978 0.23257,-0.1574 0.373662,-0.25994 0.141111,-0.10253 0.316935,-0.26953 0.471161,-0.35741 0.154225,-0.0879 0.261977,-0.15904 0.438648,-0.17872 0.176671,-0.0197 0.584877,0.0975 0.584877,0.0975 0,0 -0.393888,0.003 -0.568621,0.065 -0.174752,0.0623 -0.278704,0.1763 -0.454904,0.29244 -0.17622,0.11615 -0.397877,0.27888 -0.601115,0.40616 -0.203238,0.12728 -0.405948,0.28856 -0.617371,0.35742 -0.211422,0.0689 -0.330557,0.12004 -0.513964,0.11093 -0.183444,-0.009 -0.391235,-0.0481 -0.574548,-0.14342 -0.183313,-0.0953 -0.410182,-0.37487 -0.552384,-0.51987 -0.142202,-0.14503 -0.139041,-0.23205 -0.308676,-0.34119 -0.169634,-0.10913 -0.71485,-0.22745 -0.71485,-0.22745 z"
       style="display:inline;fill:#333333;fill-opacity:1;fill-rule:evenodd;stroke:#333333;stroke-width:0.03371629px;stroke-linecap:butt;stroke-linejoin:miter;stroke-opacity:1" />
    <path
       sodipodi:nodetypes="czzzzzzzczzzzzzzc"
       inkscape:connector-curvature="0"
       id="path1047-2"
       d="m 71.121866,167.47285 c 0,0 -0.801135,0.13678 -1.137242,0.1787 -0.336108,0.0419 -0.44657,0.0304 -0.745406,0.0813 -0.298836,0.0509 -0.570371,0.0953 -0.891615,0.14779 -0.321263,0.0525 -0.368131,0.039 -0.7528,0.0341 -0.384669,-0.005 -0.48625,-0.0194 -0.76945,-0.0846 -0.283201,-0.0652 -0.566326,-0.0919 -0.876545,-0.18175 -0.310237,-0.0898 -0.533456,-0.14295 -0.844823,-0.20801 -0.311366,-0.0651 -0.935585,-0.21122 -0.935585,-0.21122 0,0 0.507812,0.3179 0.796073,0.43867 0.288262,0.12077 0.57071,0.18504 0.926047,0.27618 0.355318,0.0911 0.69882,0.18717 0.997053,0.24687 0.298234,0.0597 0.488019,0.1175 0.85504,0.0943 0.36702,-0.0232 0.513889,-0.0641 0.776656,-0.11532 0.262749,-0.0512 0.561209,-0.0866 0.872537,-0.14938 0.31131,-0.0628 0.665537,-0.15084 0.96648,-0.23893 0.300962,-0.0881 0.76358,-0.30868 0.76358,-0.30868 z"
       style="display:inline;fill:#333333;fill-opacity:1;fill-rule:evenodd;stroke:#333333;stroke-width:0.03371629px;stroke-linecap:butt;stroke-linejoin:miter;stroke-opacity:1" />
    <path
       sodipodi:nodetypes="zzzzzzzzzzzszzzzzzzzz"
       inkscape:connector-curvature="0"
       id="path1049-9"
       d="m 63.515055,152.89385 c 0.348752,0.10262 0.850712,0.25417 1.171768,0.36761 0.321056,0.11343 0.605649,0.15257 0.7582,0.29868 0.15255,0.14614 0.1851,0.27477 0.18382,0.41357 -0.0019,0.13882 -0.06762,0.25366 -0.160848,0.34465 -0.09321,0.091 -0.197198,0.12517 -0.367603,0.16083 -0.170406,0.0356 -0.409618,0.007 -0.643335,0 -0.233699,-0.007 -0.474999,0.0111 -0.7582,-0.046 -0.2832,-0.057 -0.639553,-0.22194 -0.919028,-0.32165 -0.279494,-0.0997 -0.467981,-0.221 -0.758218,-0.27572 -0.290219,-0.0547 -0.662019,-0.10512 -0.964994,-0.023 -0.302956,0.0821 -0.517783,0.32661 -0.781172,0.48251 -0.227264,0.1345 -0.514491,0.38604 -0.689281,0.39057 -0.174789,0.005 -0.164422,-0.0149 -0.229766,-0.11488 -0.06534,-0.10004 -0.04,-0.31598 -0.02297,-0.45951 0.01693,-0.14352 0.01985,-0.22637 0.114883,-0.39058 0.09503,-0.16424 0.298855,-0.36032 0.505479,-0.52845 0.206606,-0.16815 0.468771,-0.33933 0.735227,-0.45952 0.266455,-0.1202 0.524895,-0.23027 0.850109,-0.25274 0.325215,-0.0225 0.727231,0.0907 1.056885,0.16083 0.329654,0.0702 0.570296,0.15011 0.919047,0.25274 z"
       style="display:inline;fill:#333333;fill-opacity:1;fill-rule:evenodd;stroke:#333333;stroke-width:0.03371629px;stroke-linecap:butt;stroke-linejoin:miter;stroke-opacity:1" />
    <path
       sodipodi:nodetypes="zzzzzzzzzzzzzzzzzzzzzzz"
       inkscape:connector-curvature="0"
       id="path1051-3"
       d="m 73.027092,152.82491 c -0.318215,0.092 -0.60881,0.22147 -0.94202,0.32166 -0.333211,0.10021 -0.810467,0.14347 -1.056885,0.27571 -0.246436,0.13225 -0.374471,0.24006 -0.436541,0.3906 -0.06207,0.15056 -0.06643,0.25244 0.02297,0.3906 0.08939,0.13815 0.301789,0.22013 0.528451,0.27571 0.226644,0.0556 0.539722,0.0466 0.804146,0 0.264423,-0.0466 0.447096,-0.15124 0.758218,-0.27571 0.311103,-0.12448 0.689563,-0.31299 1.10283,-0.48249 0.413287,-0.16952 1.053555,-0.42595 1.378562,-0.52845 0.325007,-0.10251 0.392571,-0.14247 0.551424,-0.13786 0.158854,0.005 0.234188,0.009 0.367604,0.11488 0.133416,0.10631 0.192231,0.35888 0.321677,0.55143 0.129446,0.19253 0.301903,0.48313 0.459514,0.59737 0.157593,0.11422 0.286889,0.17974 0.390596,0.13786 0.103688,-0.0419 0.09505,-0.0665 0.114864,-0.22977 0.01983,-0.16331 -0.09221,-0.47052 -0.160829,-0.71225 -0.06862,-0.24174 -0.14064,-0.50392 -0.25272,-0.73523 -0.112099,-0.23131 -0.213379,-0.51069 -0.413569,-0.64334 -0.200208,-0.13262 -0.412477,-0.12096 -0.666308,-0.11486 -0.25383,0.006 -0.507736,0.091 -0.827136,0.1838 -0.319382,0.0928 -0.738087,0.28845 -1.079858,0.3906 -0.34179,0.10212 -0.646797,0.13776 -0.964993,0.22974 z"
       style="display:inline;fill:#333333;fill-opacity:1;fill-rule:evenodd;stroke:#333333;stroke-width:0.03371629px;stroke-linecap:butt;stroke-linejoin:miter;stroke-opacity:1" />
    <path
       id="path1053-1"
       style="fill:#7a7a7a;fill-opacity:1;stroke:none;stroke-width:0.04304639px;stroke-linecap:butt;stroke-linejoin:miter;stroke-opacity:1"
       d="m 58.720965,154.49334 c 0.04119,-0.15899 0.08597,-0.29355 0.167358,-0.41286 0.08141,-0.11928 0.149107,-0.19174 0.294715,-0.26798 0.145608,-0.0762 0.331197,-0.11381 0.563937,-0.15211 0.232739,-0.0383 0.57355,-0.0606 0.844089,-0.0869 0.270557,-0.0263 0.441245,-0.0474 0.778613,-0.0579 0.33735,-0.0105 0.847626,0 1.244299,0.0145 0.396654,0.0137 0.771031,0.0284 1.135154,0.0652 0.364124,0.0368 0.715377,0.0899 1.047835,0.1521 0.332477,0.0622 0.662752,0.12154 0.945971,0.21729 0.28322,0.0958 0.564896,0.21423 0.749489,0.34042 0.184592,0.12617 0.28431,0.21308 0.371122,0.36215 0.08677,0.14907 0.113698,0.29932 0.13097,0.49976 0.01731,0.20043 -0.0053,0.42357 -0.05821,0.68807 -0.05296,0.2645 -0.169014,0.60292 -0.283784,0.88364 -0.114789,0.28072 -0.246832,0.54369 -0.40021,0.79673 -0.153397,0.25302 -0.314283,0.54606 -0.516655,0.71705 -0.202372,0.17099 -0.33592,0.21837 -0.633062,0.31144 -0.297142,0.0931 -0.763863,0.14847 -1.149717,0.17383 -0.385835,0.0254 -0.791784,-0.003 -1.156979,-0.0217 -0.365215,-0.0188 -0.621886,-0.026 -1.033291,-0.0869 -0.411405,-0.0609 -1.061212,-0.19575 -1.42622,-0.30422 -0.365026,-0.10845 -0.60657,-0.20971 -0.771332,-0.29695 -0.164761,-0.0872 -0.147527,-0.0717 -0.240114,-0.16659 -0.09261,-0.0948 -0.184461,-0.21477 -0.276522,-0.4201 -0.09206,-0.20532 -0.160095,-0.54405 -0.218308,-0.81844 -0.05819,-0.27442 -0.10239,-0.55974 -0.13097,-0.82569 -0.02858,-0.26597 -0.05072,-0.54973 -0.04367,-0.76776 0.0071,-0.21804 0.02433,-0.37699 0.06549,-0.53597 z m -0.70087,-1.27898 c -0.03163,0.004 -0.04758,0.58665 -0.09375,0.91132 0.03652,0.1162 0.08152,0.21575 0.131572,0.34047 0.120359,0.25502 0.187923,0.91331 0.241018,1.1788 0.05308,0.26552 0.10017,0.62539 0.160077,0.88364 0.05991,0.25827 0.1235,0.45391 0.189201,0.66637 0.06568,0.21245 0.151064,0.44152 0.239757,0.61353 0.08869,0.17198 0.124931,0.2628 0.30561,0.40984 0.180697,0.14704 0.451574,0.25524 0.764427,0.36727 0.312834,0.112 0.637709,0.20662 1.076941,0.28971 0.439232,0.0831 1.108381,0.16284 1.562344,0.19943 0.453964,0.0366 0.740552,0.0445 1.159125,0.0324 0.418573,-0.0122 0.969565,-0.0617 1.3389,-0.14486 0.369334,-0.0832 0.60706,-0.13428 0.852612,-0.31445 0.245571,-0.18017 0.368638,-0.41594 0.559063,-0.71406 0.190406,-0.2981 0.43466,-0.75604 0.582131,-1.07194 0.147451,-0.31592 0.224592,-0.58461 0.320171,-0.81122 0.09558,-0.2266 0.137461,-0.42628 0.247396,-0.55046 0.109935,-0.12418 0.177104,-0.15466 0.334735,-0.20281 0.157611,-0.0481 0.410746,-0.0453 0.596674,-0.029 0.185928,0.0164 0.35432,0.0451 0.473343,0.11588 0.11906,0.0708 0.13129,0.12002 0.188317,0.2369 0.05703,0.11687 0.0902,0.25243 0.138779,0.45842 0.0486,0.20598 0.124742,0.46316 0.218308,0.76776 0.09357,0.30459 0.229898,0.77613 0.349278,1.05746 0.11938,0.28132 0.206681,0.47416 0.334716,0.63737 0.128034,0.16322 0.207057,0.23553 0.392947,0.34766 0.185872,0.11214 0.443164,0.20123 0.727663,0.27525 0.284499,0.074 0.669111,0.11185 0.975078,0.14485 0.305948,0.033 0.535601,0.0536 0.858633,0.058 0.32305,0.004 0.717823,-0.0193 1.076941,-0.0435 0.359118,-0.0241 0.714173,-0.0366 1.076941,-0.10141 0.362787,-0.0648 0.839988,-0.18371 1.091504,-0.28971 0.251516,-0.10601 0.296935,-0.14019 0.436598,-0.26076 0.139662,-0.12056 0.235938,-0.27492 0.347509,-0.46866 0.111591,-0.19373 0.206813,-0.42958 0.292834,-0.6902 0.08602,-0.26062 0.179136,-0.63505 0.247415,-0.86915 0.06826,-0.23409 0.101355,-0.36935 0.160076,-0.53598 0.05874,-0.16662 0.108449,-0.35925 0.189202,-0.46356 0.08075,-0.10429 0.131064,-0.12 0.232852,-0.17383 0.10177,-0.0538 0.268093,-0.0969 0.34751,-0.17132 0.07942,-0.0744 0.142052,-0.53624 0.14303,-0.74289 0.0019,-0.20662 0.02628,-0.34442 -0.04365,-0.39112 -0.06994,-0.0467 -0.400568,-0.0466 -0.592422,-0.0563 -0.191874,-0.01 -0.37814,-0.029 -0.567587,-0.058 -0.189446,-0.0289 -0.296201,-0.0679 -0.567567,-0.11588 -0.271385,-0.048 -0.717899,-0.11364 -1.062398,-0.15934 -0.344499,-0.0457 -0.611274,-0.0785 -1.004184,-0.11588 -0.39291,-0.0374 -0.91376,-0.0924 -1.353463,-0.10142 -0.439683,-0.009 -0.819197,0.006 -1.280687,0.0435 -0.46147,0.037 -1.064899,0.11194 -1.484432,0.18831 -0.419514,0.0764 -0.719986,0.18211 -1.033272,0.24627 -0.313285,0.0641 -0.561886,0.11836 -0.844089,0.14486 -0.282222,0.0265 -0.575715,0.0401 -0.844108,0.0145 -0.268374,-0.0256 -0.418611,-0.0755 -0.756769,-0.15934 -0.33814,-0.0839 -0.843977,-0.25112 -1.266125,-0.36215 -0.422166,-0.11104 -0.821962,-0.21879 -1.266142,-0.30421 -0.444181,-0.0854 -0.879913,-0.1566 -1.397113,-0.20281 -0.517182,-0.0462 -1.217413,-0.0555 -1.702741,-0.0579 -0.485328,-0.002 -0.790712,0.0216 -1.20793,0.029 -0.4172,0.007 -0.863036,0.0275 -1.295231,0.0401 -0.432214,0.0126 -0.978445,0.0173 -1.297563,0.0354 z m 11.797773,2.35818 c 0.01373,-0.12446 0.0254,-0.37141 0.06547,-0.50703 0.0401,-0.13559 0.07522,-0.20649 0.145533,-0.30419 0.07031,-0.0977 0.15938,-0.19 0.276521,-0.26798 0.117141,-0.078 0.231046,-0.11682 0.422035,-0.18108 0.19099,-0.0643 0.486947,-0.13787 0.727663,-0.18107 0.240736,-0.0432 0.457238,-0.053 0.713119,-0.0797 0.255882,-0.0267 0.548038,-0.0616 0.822246,-0.0797 0.274225,-0.0181 0.540737,-0.0287 0.822263,-0.029 0.281545,0 0.579497,0.008 0.865933,0.029 0.286418,0.0206 0.561453,0.0569 0.851371,0.0942 0.289917,0.0373 0.620776,0.0744 0.887758,0.13038 0.266963,0.056 0.538668,0.11833 0.7131,0.19555 0.174433,0.0772 0.255317,0.12233 0.341997,0.21729 0.0867,0.095 0.126887,0.17102 0.167377,0.32593 0.04049,0.1549 0.02997,0.35663 0.02182,0.59392 -0.0081,0.2373 -0.04083,0.58511 -0.08732,0.82569 -0.04649,0.24059 -0.10143,0.39308 -0.174639,0.61566 -0.07323,0.22258 -0.176276,0.49865 -0.26924,0.71705 -0.09296,0.2184 -0.14557,0.44439 -0.283783,0.59393 -0.138233,0.14952 -0.310163,0.19827 -0.487549,0.28247 -0.177348,0.0842 -0.346813,0.15176 -0.574849,0.21729 -0.228035,0.0655 -0.524783,0.11938 -0.793157,0.15934 -0.268356,0.04 -0.524877,0.0644 -0.814983,0.0797 -0.290105,0.0152 -0.606044,0.0188 -0.924127,0.007 -0.318083,-0.0117 -0.660701,-0.0396 -0.982359,-0.0797 -0.321658,-0.0401 -0.698199,-0.073 -0.945953,-0.15934 -0.247753,-0.0863 -0.372777,-0.14885 -0.53848,-0.29698 -0.165702,-0.14813 -0.310181,-0.3787 -0.414772,-0.58666 -0.104573,-0.20796 -0.131948,-0.39724 -0.211008,-0.64463 -0.07906,-0.2474 -0.204103,-0.59751 -0.261959,-0.84018 -0.05787,-0.24267 -0.08561,-0.37155 -0.09097,-0.51425 -0.0053,-0.14271 -0.0028,-0.20873 0.01091,-0.33317 z"
       inkscape:connector-curvature="0"
       sodipodi:nodetypes="csccccccsccscscccscccccsccscccccccsscccssscccccsccsccccsccssccccccscsccccccsscsccsscccccsccccccsccsccscccsccsscccccsscsscccc" />
  </g>
</svg>
